<svg width="28" height="40" viewBox="0 0 28 40" fill="none" xmlns="http://www.w3.org/2000/svg">
<path d="M13.9971 19.9999C13.9971 16.3181 16.9818 13.3333 20.6637 13.3333C24.3456 13.3333 27.3304 16.318 27.3304 19.9999C27.3304 23.6818 24.3456 26.6666 20.6637 26.6666C16.9818 26.6666 13.9971 23.6818 13.9971 19.9999Z" fill="#6AA7F3"/>
<path d="M0.664062 33.3334C0.664062 29.6515 3.64883 26.6667 7.33073 26.6667H13.9974V33.3334C13.9974 37.0153 11.0126 40.0001 7.33073 40.0001C3.64883 40.0001 0.664062 37.0153 0.664062 33.3334Z" fill="#0FA958"/>
<path d="M13.9971 0V13.3333H20.6637C24.3456 13.3333 27.3304 10.3486 27.3304 6.66667C27.3304 2.98477 24.3456 0 20.6637 0L13.9971 0Z" fill="#FF8577"/>
<path d="M0.664062 6.66658C0.664062 10.3485 3.64883 13.3333 7.33073 13.3333L13.9974 13.3333L13.9974 -8.29697e-05L7.33073 -8.29697e-05C3.64883 -8.29697e-05 0.664062 2.98469 0.664062 6.66658Z" fill="#F24E1E"/>
<path d="M0.664062 20.0001C0.664062 23.682 3.64883 26.6667 7.33073 26.6667H13.9974L13.9974 13.3334L7.33073 13.3334C3.64883 13.3334 0.664062 16.3182 0.664062 20.0001Z" fill="#A259FF"/>
</svg>
